<svg width="19" height="24" viewBox="0 0 19 24" fill="none" xmlns="http://www.w3.org/2000/svg"><path d="M17.05 8.727c0 .953-.466 2.33-1.3 3.965-.817 1.6-1.916 3.316-3.031 4.905a81.207 81.207 0 01-3.694 4.845 81.207 81.207 0 01-3.694-4.845c-1.115-1.59-2.214-3.305-3.03-4.905C1.466 11.057 1 9.68 1 8.727 1 4.491 4.561 1 9.025 1s8.025 3.491 8.025 7.727z" stroke="#000" stroke-width="2"/><path d="M11.893 7.862c0 1.469-1.248 2.724-2.868 2.724-1.62 0-2.868-1.255-2.868-2.724 0-1.47 1.248-2.724 2.868-2.724 1.62 0 2.868 1.255 2.868 2.724z" stroke="#FAB31E" stroke-width="2"/></svg>